<mxfile host="app.diagrams.net" modified="2023-10-07T09:40:35.416Z" agent="Mozilla/5.0 (Windows NT 10.0; Win64; x64) AppleWebKit/537.36 (KHTML, like Gecko) Chrome/92.0.4515.159 Safari/537.36" etag="GBczTnQoA_BSRtU12c5K" version="22.0.4" type="github">
  <diagram name="Page-1" id="Jygo_MvmMDx1Jx6CAb3D">
    <mxGraphModel dx="1434" dy="739" grid="1" gridSize="10" guides="1" tooltips="1" connect="1" arrows="1" fold="1" page="1" pageScale="1" pageWidth="850" pageHeight="1100" math="0" shadow="0">
      <root>
        <mxCell id="0" />
        <mxCell id="1" parent="0" />
        <mxCell id="omCl1ooTcDRA1tcI9xCg-8" style="edgeStyle=orthogonalEdgeStyle;rounded=0;orthogonalLoop=1;jettySize=auto;html=1;exitX=1;exitY=0;exitDx=0;exitDy=0;entryX=0;entryY=0.5;entryDx=0;entryDy=0;" edge="1" parent="1" source="omCl1ooTcDRA1tcI9xCg-1" target="omCl1ooTcDRA1tcI9xCg-3">
          <mxGeometry relative="1" as="geometry" />
        </mxCell>
        <mxCell id="omCl1ooTcDRA1tcI9xCg-1" value="Trang Đăng Nhập" style="rounded=0;whiteSpace=wrap;html=1;" vertex="1" parent="1">
          <mxGeometry x="40" y="340" width="120" height="60" as="geometry" />
        </mxCell>
        <mxCell id="omCl1ooTcDRA1tcI9xCg-18" style="edgeStyle=orthogonalEdgeStyle;rounded=0;orthogonalLoop=1;jettySize=auto;html=1;exitX=1;exitY=0;exitDx=0;exitDy=0;entryX=0;entryY=0.5;entryDx=0;entryDy=0;" edge="1" parent="1" source="omCl1ooTcDRA1tcI9xCg-3" target="omCl1ooTcDRA1tcI9xCg-10">
          <mxGeometry relative="1" as="geometry" />
        </mxCell>
        <mxCell id="omCl1ooTcDRA1tcI9xCg-19" style="edgeStyle=orthogonalEdgeStyle;rounded=0;orthogonalLoop=1;jettySize=auto;html=1;exitX=1;exitY=0.5;exitDx=0;exitDy=0;" edge="1" parent="1" source="omCl1ooTcDRA1tcI9xCg-3" target="omCl1ooTcDRA1tcI9xCg-11">
          <mxGeometry relative="1" as="geometry" />
        </mxCell>
        <mxCell id="omCl1ooTcDRA1tcI9xCg-20" style="edgeStyle=orthogonalEdgeStyle;rounded=0;orthogonalLoop=1;jettySize=auto;html=1;exitX=1;exitY=1;exitDx=0;exitDy=0;entryX=0;entryY=0.5;entryDx=0;entryDy=0;" edge="1" parent="1" source="omCl1ooTcDRA1tcI9xCg-3" target="omCl1ooTcDRA1tcI9xCg-12">
          <mxGeometry relative="1" as="geometry" />
        </mxCell>
        <mxCell id="omCl1ooTcDRA1tcI9xCg-3" value="Trang Chính Của Nhân Viên&amp;nbsp;" style="rounded=0;whiteSpace=wrap;html=1;" vertex="1" parent="1">
          <mxGeometry x="240" y="90" width="120" height="60" as="geometry" />
        </mxCell>
        <mxCell id="omCl1ooTcDRA1tcI9xCg-21" style="edgeStyle=orthogonalEdgeStyle;rounded=0;orthogonalLoop=1;jettySize=auto;html=1;exitX=1;exitY=0;exitDx=0;exitDy=0;entryX=0;entryY=0.5;entryDx=0;entryDy=0;" edge="1" parent="1" source="omCl1ooTcDRA1tcI9xCg-4" target="omCl1ooTcDRA1tcI9xCg-13">
          <mxGeometry relative="1" as="geometry" />
        </mxCell>
        <mxCell id="omCl1ooTcDRA1tcI9xCg-26" style="edgeStyle=orthogonalEdgeStyle;rounded=0;orthogonalLoop=1;jettySize=auto;html=1;exitX=1;exitY=1;exitDx=0;exitDy=0;entryX=0;entryY=0.5;entryDx=0;entryDy=0;" edge="1" parent="1" source="omCl1ooTcDRA1tcI9xCg-4" target="omCl1ooTcDRA1tcI9xCg-15">
          <mxGeometry relative="1" as="geometry" />
        </mxCell>
        <mxCell id="omCl1ooTcDRA1tcI9xCg-28" style="edgeStyle=orthogonalEdgeStyle;rounded=0;orthogonalLoop=1;jettySize=auto;html=1;exitX=0.75;exitY=1;exitDx=0;exitDy=0;entryX=0;entryY=0.5;entryDx=0;entryDy=0;" edge="1" parent="1" source="omCl1ooTcDRA1tcI9xCg-4" target="omCl1ooTcDRA1tcI9xCg-16">
          <mxGeometry relative="1" as="geometry" />
        </mxCell>
        <mxCell id="omCl1ooTcDRA1tcI9xCg-29" style="edgeStyle=orthogonalEdgeStyle;rounded=0;orthogonalLoop=1;jettySize=auto;html=1;exitX=0.5;exitY=1;exitDx=0;exitDy=0;entryX=0;entryY=0.5;entryDx=0;entryDy=0;" edge="1" parent="1" source="omCl1ooTcDRA1tcI9xCg-4" target="omCl1ooTcDRA1tcI9xCg-17">
          <mxGeometry relative="1" as="geometry" />
        </mxCell>
        <mxCell id="omCl1ooTcDRA1tcI9xCg-4" value="Trang Chính Của Quản Lý&lt;br&gt;" style="rounded=0;whiteSpace=wrap;html=1;" vertex="1" parent="1">
          <mxGeometry x="250" y="590" width="120" height="60" as="geometry" />
        </mxCell>
        <mxCell id="omCl1ooTcDRA1tcI9xCg-7" style="edgeStyle=orthogonalEdgeStyle;rounded=0;orthogonalLoop=1;jettySize=auto;html=1;exitX=1;exitY=1;exitDx=0;exitDy=0;entryX=0;entryY=0.58;entryDx=0;entryDy=0;entryPerimeter=0;" edge="1" parent="1" source="omCl1ooTcDRA1tcI9xCg-1" target="omCl1ooTcDRA1tcI9xCg-4">
          <mxGeometry relative="1" as="geometry" />
        </mxCell>
        <mxCell id="omCl1ooTcDRA1tcI9xCg-40" style="edgeStyle=orthogonalEdgeStyle;rounded=0;orthogonalLoop=1;jettySize=auto;html=1;exitX=1;exitY=0.5;exitDx=0;exitDy=0;entryX=0;entryY=0.5;entryDx=0;entryDy=0;" edge="1" parent="1" source="omCl1ooTcDRA1tcI9xCg-10" target="omCl1ooTcDRA1tcI9xCg-39">
          <mxGeometry relative="1" as="geometry" />
        </mxCell>
        <mxCell id="omCl1ooTcDRA1tcI9xCg-10" value="Giao Diện Quản Lý Hóa Đơn" style="rounded=0;whiteSpace=wrap;html=1;" vertex="1" parent="1">
          <mxGeometry x="510" y="10" width="120" height="60" as="geometry" />
        </mxCell>
        <mxCell id="omCl1ooTcDRA1tcI9xCg-11" value="Giao Diện Quản Lý Khách Hàng" style="rounded=0;whiteSpace=wrap;html=1;" vertex="1" parent="1">
          <mxGeometry x="510" y="90" width="120" height="60" as="geometry" />
        </mxCell>
        <mxCell id="omCl1ooTcDRA1tcI9xCg-12" value="Giao Diện Quản Lý Sách" style="rounded=0;whiteSpace=wrap;html=1;" vertex="1" parent="1">
          <mxGeometry x="510" y="170" width="120" height="60" as="geometry" />
        </mxCell>
        <mxCell id="omCl1ooTcDRA1tcI9xCg-43" style="edgeStyle=orthogonalEdgeStyle;rounded=0;orthogonalLoop=1;jettySize=auto;html=1;exitX=1;exitY=0.5;exitDx=0;exitDy=0;entryX=0;entryY=0.5;entryDx=0;entryDy=0;" edge="1" parent="1" source="omCl1ooTcDRA1tcI9xCg-13" target="omCl1ooTcDRA1tcI9xCg-42">
          <mxGeometry relative="1" as="geometry" />
        </mxCell>
        <mxCell id="omCl1ooTcDRA1tcI9xCg-13" value="Giao Diện Quản Lý Hóa Đơn" style="rounded=0;whiteSpace=wrap;html=1;" vertex="1" parent="1">
          <mxGeometry x="520" y="470" width="120" height="60" as="geometry" />
        </mxCell>
        <mxCell id="omCl1ooTcDRA1tcI9xCg-14" value="Giao DiệnQuản Lý Khách Hàng" style="rounded=0;whiteSpace=wrap;html=1;" vertex="1" parent="1">
          <mxGeometry x="520" y="570" width="120" height="60" as="geometry" />
        </mxCell>
        <mxCell id="omCl1ooTcDRA1tcI9xCg-15" value="Giao Diện Quản Lý Sách" style="rounded=0;whiteSpace=wrap;html=1;" vertex="1" parent="1">
          <mxGeometry x="520" y="670" width="120" height="60" as="geometry" />
        </mxCell>
        <mxCell id="omCl1ooTcDRA1tcI9xCg-16" value="Giao Diện Quản Lý Nhân Viên" style="rounded=0;whiteSpace=wrap;html=1;" vertex="1" parent="1">
          <mxGeometry x="520" y="760" width="120" height="60" as="geometry" />
        </mxCell>
        <mxCell id="omCl1ooTcDRA1tcI9xCg-17" value="Giao Diện Quản Lý Nhà Cung Cấp" style="rounded=0;whiteSpace=wrap;html=1;" vertex="1" parent="1">
          <mxGeometry x="520" y="850" width="120" height="60" as="geometry" />
        </mxCell>
        <mxCell id="omCl1ooTcDRA1tcI9xCg-24" style="edgeStyle=orthogonalEdgeStyle;rounded=0;orthogonalLoop=1;jettySize=auto;html=1;exitX=1;exitY=0.5;exitDx=0;exitDy=0;entryX=0.083;entryY=0.833;entryDx=0;entryDy=0;entryPerimeter=0;" edge="1" parent="1" source="omCl1ooTcDRA1tcI9xCg-4" target="omCl1ooTcDRA1tcI9xCg-14">
          <mxGeometry relative="1" as="geometry" />
        </mxCell>
        <mxCell id="omCl1ooTcDRA1tcI9xCg-30" value="Nhấn Chức Năng QLKH" style="text;html=1;strokeColor=none;fillColor=none;align=center;verticalAlign=middle;whiteSpace=wrap;rounded=0;" vertex="1" parent="1">
          <mxGeometry x="382.5" y="90" width="95" height="30" as="geometry" />
        </mxCell>
        <mxCell id="omCl1ooTcDRA1tcI9xCg-31" value="Nhấn Chức Năng QL Hóa Đơn" style="text;html=1;strokeColor=none;fillColor=none;align=center;verticalAlign=middle;whiteSpace=wrap;rounded=0;" vertex="1" parent="1">
          <mxGeometry x="370" y="10" width="120" height="30" as="geometry" />
        </mxCell>
        <mxCell id="omCl1ooTcDRA1tcI9xCg-32" value="Nhấn Chức Năng QL Sách" style="text;html=1;strokeColor=none;fillColor=none;align=center;verticalAlign=middle;whiteSpace=wrap;rounded=0;" vertex="1" parent="1">
          <mxGeometry x="382.5" y="160" width="95" height="30" as="geometry" />
        </mxCell>
        <mxCell id="omCl1ooTcDRA1tcI9xCg-34" value="Nhấn Chức Năng QL Hóa Đơn" style="text;html=1;strokeColor=none;fillColor=none;align=center;verticalAlign=middle;whiteSpace=wrap;rounded=0;" vertex="1" parent="1">
          <mxGeometry x="382.5" y="470" width="120" height="30" as="geometry" />
        </mxCell>
        <mxCell id="omCl1ooTcDRA1tcI9xCg-35" value="Nhấn Chức Năng QLKH" style="text;html=1;strokeColor=none;fillColor=none;align=center;verticalAlign=middle;whiteSpace=wrap;rounded=0;" vertex="1" parent="1">
          <mxGeometry x="390" y="585" width="110" height="30" as="geometry" />
        </mxCell>
        <mxCell id="omCl1ooTcDRA1tcI9xCg-36" value="Nhấn Chức Năng QL Sách" style="text;html=1;strokeColor=none;fillColor=none;align=center;verticalAlign=middle;whiteSpace=wrap;rounded=0;" vertex="1" parent="1">
          <mxGeometry x="397.5" y="670" width="95" height="30" as="geometry" />
        </mxCell>
        <mxCell id="omCl1ooTcDRA1tcI9xCg-37" value="Nhấn Chức Năng QL Nhân Viên" style="text;html=1;strokeColor=none;fillColor=none;align=center;verticalAlign=middle;whiteSpace=wrap;rounded=0;" vertex="1" parent="1">
          <mxGeometry x="390" y="760" width="110" height="30" as="geometry" />
        </mxCell>
        <mxCell id="omCl1ooTcDRA1tcI9xCg-38" value="Nhấn Chức Năng QL Nhà Cung Cấp" style="text;html=1;strokeColor=none;fillColor=none;align=center;verticalAlign=middle;whiteSpace=wrap;rounded=0;" vertex="1" parent="1">
          <mxGeometry x="397.5" y="840" width="110" height="30" as="geometry" />
        </mxCell>
        <mxCell id="omCl1ooTcDRA1tcI9xCg-39" value="Giao Diện Xem Thông Tin Chi Tiết Hóa Đơn" style="rounded=0;whiteSpace=wrap;html=1;" vertex="1" parent="1">
          <mxGeometry x="880" y="10" width="140" height="60" as="geometry" />
        </mxCell>
        <mxCell id="omCl1ooTcDRA1tcI9xCg-41" value="Nhấn Chức Năng Xem Chi Tiết Hóa Đơn" style="text;html=1;strokeColor=none;fillColor=none;align=center;verticalAlign=middle;whiteSpace=wrap;rounded=0;" vertex="1" parent="1">
          <mxGeometry x="680" y="10" width="150" height="30" as="geometry" />
        </mxCell>
        <mxCell id="omCl1ooTcDRA1tcI9xCg-42" value="Giao Diện Xem Thông Tin Chi Tiết Hóa Đơn" style="rounded=0;whiteSpace=wrap;html=1;" vertex="1" parent="1">
          <mxGeometry x="880" y="470" width="140" height="60" as="geometry" />
        </mxCell>
        <mxCell id="omCl1ooTcDRA1tcI9xCg-44" value="Nhấn Chức Năng Xem Chi Tiết Hóa Đơn" style="text;html=1;strokeColor=none;fillColor=none;align=center;verticalAlign=middle;whiteSpace=wrap;rounded=0;" vertex="1" parent="1">
          <mxGeometry x="680" y="470" width="150" height="30" as="geometry" />
        </mxCell>
      </root>
    </mxGraphModel>
  </diagram>
</mxfile>
